# xmcd
#
# Track frame offsets:
#	150
#	14189
#	27796
#	42768
#	57246
#	70052
#	80791
#	98059
#	111969
#	122466
#
# Disc length: 1830 seconds
#
# Revision: 0
# Processed by: cddbd v1.5.2PL0 Copyright (c) Steve Scherf et al.
# Submitted via: EasyCDDAExtractor 16.0.6.1
#
DISCID=8007240a
DTITLE=Συλλογικός δίσκος - Λαϊκό τραγούδι 1954-1967, 1964-5
DYEAR=2008
DGENRE=Λαϊκή
TTITLE0=Μοσχολιού Βίκυ-Καλδάρας Απόστολος - Ένα τραγούδι απ' τ' Αλγέρι [Απόστο
TTITLE0=λος Καλδάρας]
TTITLE1=Γαβαλάς Πάνος-Κούρτη Ρία - Πού θα πας, πού θα πας [Βασίλης Βασιλειάδης
TTITLE1=Πυθαγόρας]
TTITLE2=Καζαντζίδης Στέλιος-Μαρινέλλα - Τα ξενύχτια και οι όμορφες γυναίκες [Μ
TTITLE2=πάμ. Μπακάλης-Γ. Τσεκούρας]
TTITLE3=Γαβαλάς Πάνος - Μη με ρωτάτε [Θάνος Σοφός-Βασίλης Καραπατάκης]
TTITLE4=Μπιθικώτσης Γρηγόρης-Χρυσάφη Άννα - Της γειτονιάς ο κόκορας [Κώστας Κα
TTITLE4=πλάνης]
TTITLE5=Τσαουσάκης Πρόδρομος-Γρίλλη Μαρία - Σε ξέγραψα από φίλο μκου [Δημήτρης
TTITLE5=Γκούτης]
TTITLE6=Ρεπάνης Αντώνης-Δούκισσα - Γιατί στα μάτια με φιλάς [Στέλιος Μακρυδάκη
TTITLE6=ς-Δημήτρης Γκούτης]
TTITLE7=Μοσχολιού Βίκυ - Χωρισμός [Γιώργος Ζαμπέτας-Δημήτρης Χριστοδούλου]
TTITLE8=Μπιθικώτσης Γρηγόρη-Ιωαννίδης Μιχάλης - Δεν σού χρωστάω τίποτα [Σταύρο
TTITLE8=ς Ξαρχάκος-Λευτ. Παπαδόπουλος]
TTITLE9=Μοσχολιού Βίκυ - Τα δάκρυα [Γιώργος Ζαμπέτας-Γ. Παπανικολάου]
EXTD=
EXTT0=
EXTT1=
EXTT2=
EXTT3=
EXTT4=
EXTT5=
EXTT6=
EXTT7=
EXTT8=
EXTT9=
PLAYORDER=
